<svg xmlns="http://www.w3.org/2000/svg" viewBox="0 0 64 64"><path d="M57.77 63.32a.997.997 0 0 0 .94.68H63a1.003 1.003 0 0 0 1-1v-2h-7.03zM42 63a1.003 1.003 0 0 0 1 1h4.29a.997.997 0 0 0 .94-.68l.8-2.32H42zM47 29h12a1 1 0 0 0 .976-1.217l-2-9A1 1 0 0 0 57 18h-8a1 1 0 0 0-.976.783l-2 9A1 1 0 0 0 47 29zM52 31v5h-1a3.009 3.009 0 0 0-3 3h10a3.009 3.009 0 0 0-3-3h-1v-5zM11 38h5v3h-5zM24 38h5v3h-5z" style="fill:#1b1b1e"/><path d="M9 38a2.006 2.006 0 0 1 2-2h5a2.006 2.006 0 0 1 2 2v3h4v-3a2.006 2.006 0 0 1 2-2h5a2.006 2.006 0 0 1 2 2v3h5v-8a3.009 3.009 0 0 0-3-3H7a3.009 3.009 0 0 0-3 3v8h5zM9 25h22a2.007 2.007 0 0 0 2-2V11a2.006 2.006 0 0 0-2-2h-3.586L22.7 4.285A2.966 2.966 0 0 0 23 3a3 3 0 0 0-6 0 2.966 2.966 0 0 0 .3 1.285L12.587 9H9a2.006 2.006 0 0 0-2 2v12a1.998 1.998 0 0 0 2 2zm9.715-19.3a2.898 2.898 0 0 0 2.57 0l3.3 3.3h-9.17zM9 11h22v7.58l-5.29-5.29a1.008 1.008 0 0 0-1.42 0l-3.88 3.88L26.24 23h-2.83c-5.828-5.828-2.066-2.076-6.2-6.21a1.008 1.008 0 0 0-1.42 0L9.59 23H9z" style="fill:#1b1b1e"/><circle cx="19" cy="14" r="1" style="fill:#1b1b1e"/><path d="M37 43H3a3.003 3.003 0 0 0-3 3v6h40v-6a3.003 3.003 0 0 0-3-3zM0 63a1 1 0 0 0 1 1h5a1 1 0 0 0 .894-.553L8.618 60h22.764l1.723 3.447A1 1 0 0 0 34 64h5a1 1 0 0 0 1-1v-9H0zM62 41H44a2.002 2.002 0 0 0-2 2v6h22v-6a2.002 2.002 0 0 0-2-2zm-7 5h-4a1 1 0 0 1 0-2h4a1 1 0 0 1 0 2zM42 59h22v-8H42zm9-5h4a1 1 0 0 1 0 2h-4a1 1 0 0 1 0-2z" style="fill:#1b1b1e"/></svg>