<svg xmlns="http://www.w3.org/2000/svg" xmlns:xlink="http://www.w3.org/1999/xlink" version="1.1" x="0px" y="0px" viewBox="0 0 60 75" style="enable-background:new 0 0 60 60;" xml:space="preserve"><g><path d="M47,60H13c-0.552,0-1-0.447-1-1V18c0-9.925,8.075-18,18-18s18,8.075,18,18v41C48,59.553,47.552,60,47,60z M14,58h32V18   c0-8.822-7.177-16-16-16S14,9.178,14,18V58z"/><path d="M43,60H17c-0.552,0-1-0.447-1-1V18c0-0.553,0.448-1,1-1h26c0.552,0,1,0.447,1,1v41C44,59.553,43.552,60,43,60z M18,58h24   V19H18V58z"/><g><path d="M28,43h-7c-0.552,0-1-0.447-1-1V25.5c0-2.481,2.019-4.5,4.5-4.5s4.5,2.019,4.5,4.5V42C29,42.553,28.552,43,28,43z M22,41    h5V25.5c0-1.379-1.122-2.5-2.5-2.5S22,24.121,22,25.5V41z"/><path d="M39,43h-7c-0.552,0-1-0.447-1-1V25.5c0-2.481,2.019-4.5,4.5-4.5s4.5,2.019,4.5,4.5V42C40,42.553,39.552,43,39,43z M33,41    h5V25.5c0-1.379-1.122-2.5-2.5-2.5S33,24.121,33,25.5V41z"/></g><g><path d="M28,56h-7c-0.552,0-1-0.447-1-1v-9c0-0.553,0.448-1,1-1h7c0.552,0,1,0.447,1,1v9C29,55.553,28.552,56,28,56z M22,54h5v-7    h-5V54z"/><path d="M39,56h-7c-0.552,0-1-0.447-1-1v-9c0-0.553,0.448-1,1-1h7c0.552,0,1,0.447,1,1v9C40,55.553,39.552,56,39,56z M33,54h5v-7    h-5V54z"/></g><path d="M43,19H17c-0.552,0-1-0.447-1-1c0-7.72,6.28-14,14-14s14,6.28,14,14C44,18.553,43.552,19,43,19z M18.041,17h23.917   C41.449,10.85,36.28,6,30,6S18.551,10.85,18.041,17z"/><path d="M30,19c-0.552,0-1-0.447-1-1V5c0-0.553,0.448-1,1-1s1,0.447,1,1v13C31,18.553,30.552,19,30,19z"/><path d="M30,19c-0.256,0-0.512-0.098-0.707-0.293c-0.391-0.391-0.391-1.023,0-1.414l9-9c0.39-0.391,1.024-0.391,1.414,0   c0.391,0.391,0.391,1.023,0,1.414l-9,9C30.512,18.902,30.256,19,30,19z"/><path d="M30,19c-0.256,0-0.512-0.098-0.707-0.293l-9-9c-0.391-0.391-0.391-1.023,0-1.414c0.39-0.391,1.024-0.391,1.414,0l9,9   c0.391,0.391,0.391,1.023,0,1.414C30.512,18.902,30.256,19,30,19z"/><path d="M32,52h-4c-0.552,0-1-0.447-1-1s0.448-1,1-1h4c0.552,0,1,0.447,1,1S32.552,52,32,52z"/><path d="M7,60H1c-0.552,0-1-0.447-1-1s0.448-1,1-1h6c0.552,0,1,0.447,1,1S7.552,60,7,60z"/><path d="M59,60H47c-0.552,0-1-0.447-1-1s0.448-1,1-1h12c0.552,0,1,0.447,1,1S59.552,60,59,60z"/></g></svg>