<svg width="150" height="50" viewBox="0 0 696 160" fill="none" xmlns="http://www.w3.org/2000/svg">
<path d="M155.321 74.6673C154.401 74.6673 153.655 75.3775 153.655 76.2552C153.655 94.3279 153.655 126.878 153.655 144.95C153.655 145.829 152.91 146.539 151.991 146.539H52.8676C52.3808 146.535 52.1167 146.807 52.1167 147.269V158.979C52.1241 159.411 52.4793 159.55 52.823 159.55L165.962 160V159.985C166.881 159.985 167.626 159.273 167.626 158.396C167.626 136.228 167.626 98.4233 167.626 76.2552C167.626 75.3775 166.881 74.6673 165.962 74.6673C162.779 74.6673 158.503 74.6673 155.321 74.6673ZM125.721 76.2552C125.721 75.3775 124.975 74.6673 124.056 74.6673C120.873 74.6673 116.598 74.6673 113.416 74.6673C112.496 74.6673 111.751 75.3775 111.751 76.2552C111.751 83.2753 111.751 98.9608 111.751 105.98C111.751 106.177 111.713 106.333 111.557 106.482C111.404 106.628 111.248 106.664 111.04 106.667C92.2924 106.667 67.9182 106.667 49.1707 106.667C47.868 106.667 46.688 106.798 45.646 107.791L1.00522 150.356C0.706937 150.64 0.706937 151.014 1.00522 151.298L9.89528 159.783C10.1918 160.068 10.5861 160.068 10.8834 159.783C20.3829 150.716 42.0985 129.993 51.5988 120.924C52.4669 120.161 53.334 120.001 54.2969 120.001H125.018C125.216 120.001 125.379 119.956 125.527 119.815C125.677 119.671 125.721 119.514 125.721 119.325C125.721 108.205 125.721 87.3751 125.721 76.2552ZM619.497 125.84L623.541 104.384C637.235 110.352 648.126 113.337 656.213 113.337C664.407 113.337 668.505 109.992 668.505 103.303C668.505 99.5981 667.427 96.8445 665.27 95.0439C663.114 93.2432 659.447 91.4173 654.271 89.5645C650.714 88.33 648.125 87.4032 646.509 86.7864C644.891 86.1696 642.599 85.2157 639.634 83.9299C636.669 82.6453 634.458 81.5119 633.003 80.5344C631.548 79.5569 629.821 78.2187 627.828 76.521C625.834 74.8221 624.35 73.072 623.379 71.2723C622.41 69.4716 621.573 67.3094 620.872 64.7883C620.172 62.2684 619.822 59.566 619.822 56.6842C619.822 47.0104 623.65 39.6266 631.305 34.532C638.96 29.4395 648.611 26.8913 660.256 26.8913C669.961 26.8913 680.312 28.7946 691.311 32.6034L686.619 53.1337C677.454 49.0176 668.721 46.9587 660.418 46.9587C651.791 46.9587 647.479 50.2012 647.479 56.6842C647.479 58.9483 648.476 61.0069 650.471 62.8588C652.465 64.7111 654.488 66.075 656.536 66.9496C658.584 67.8244 661.874 69.0848 666.403 70.7322C669.962 72.0695 672.764 73.1766 674.813 74.0504C676.862 74.9248 679.422 76.2901 682.495 78.1413C685.567 79.9934 687.942 81.8977 689.612 83.8534C691.283 85.8082 692.766 88.3562 694.06 91.4941C695.353 94.6327 696 98.1067 696 101.915C696 111.382 692.442 119.023 685.326 124.838C678.21 130.651 669.098 133.56 657.992 133.56C642.141 133.56 629.31 130.986 619.497 125.84ZM529.024 125.84L533.066 104.384C546.761 110.352 557.652 113.337 565.739 113.337C573.933 113.337 578.03 109.992 578.03 103.303C578.03 99.5981 576.952 96.8445 574.796 95.0439C572.641 93.2432 568.973 91.4173 563.798 89.5645C560.239 88.33 557.651 87.4032 556.034 86.7864C554.417 86.1696 552.126 85.2157 549.161 83.9299C546.196 82.6443 543.984 81.5108 542.53 80.5344C541.074 79.556 539.347 78.2187 537.353 76.521C535.359 74.8231 533.876 73.072 532.905 71.2723C531.936 69.4716 531.099 67.3094 530.4 64.7883C529.699 62.2684 529.347 59.566 529.347 56.6842C529.347 47.0104 533.175 39.6256 540.83 34.532C548.485 29.4384 558.137 26.8913 569.783 26.8913C579.487 26.8913 589.838 28.7946 600.837 32.6034L596.146 53.1337C586.981 49.0176 578.246 46.9587 569.943 46.9587C561.318 46.9587 557.005 50.2012 557.005 56.6842C557.005 58.9483 558.004 61.0069 559.997 62.8588C561.991 64.7111 564.014 66.075 566.062 66.9496C568.11 67.8235 571.399 69.0848 575.928 70.7322C579.487 72.0695 582.291 73.1766 584.339 74.0504C586.388 74.9248 588.948 76.2901 592.022 78.1413C595.094 79.9934 597.467 81.8977 599.138 83.8534C600.809 85.8082 602.292 88.3562 603.585 91.4941C604.879 94.6327 605.527 98.1067 605.527 101.915C605.527 111.382 601.968 119.023 594.851 124.838C587.736 130.652 578.624 133.56 567.518 133.56C551.667 133.56 538.836 130.986 529.024 125.84ZM457.58 109.478C460.222 111.02 463.538 111.793 467.527 111.793C471.517 111.793 474.834 111.021 477.474 109.478C480.116 107.934 482.084 105.619 483.378 102.531C484.672 99.4449 485.536 96.2015 485.967 92.8068C486.397 89.4102 486.613 85.2428 486.613 80.3024C486.613 76.2883 486.505 72.8404 486.29 69.9605C486.075 67.0785 485.562 64.1698 484.754 61.2385C483.945 58.3055 482.866 55.9114 481.519 54.0595C480.172 52.2081 478.311 50.7141 475.938 49.5827C473.567 48.4511 470.763 47.8848 467.527 47.8848C463.538 47.8848 460.222 48.6829 457.58 50.2777C454.94 51.8729 452.97 54.2661 451.677 57.4561C450.383 60.6453 449.494 63.9916 449.009 67.4897C448.524 70.9883 448.28 75.2595 448.28 80.3024C448.28 85.2428 448.524 89.4102 449.009 92.8068C449.494 96.2015 450.383 99.4449 451.677 102.531C452.971 105.618 454.94 107.935 457.58 109.478ZM447.553 29.901C453.322 27.8948 460.034 26.8913 467.689 26.8913C475.346 26.8913 482.058 27.8948 487.826 29.901C493.595 31.907 498.178 34.5329 501.574 37.7742C504.97 41.016 507.72 45.0301 509.823 49.8152C511.924 54.5996 513.327 59.3866 514.028 64.171C514.728 68.9559 515.079 74.3335 515.079 80.3024C515.079 86.1686 514.701 91.495 513.947 96.2799C513.193 101.064 511.764 105.85 509.661 110.636C507.559 115.42 504.782 119.436 501.332 122.676C497.882 125.919 493.271 128.543 487.502 130.549C481.734 132.556 474.967 133.56 467.204 133.56C459.548 133.56 452.862 132.556 447.149 130.549C441.434 128.543 436.877 125.919 433.481 122.676C430.085 119.435 427.335 115.421 425.233 110.636C423.131 105.85 421.727 101.064 421.028 96.2799C420.328 91.495 419.976 86.1686 419.976 80.3024C419.976 74.4373 420.354 69.084 421.109 64.2482C421.862 59.4116 423.32 54.5996 425.476 49.8152C427.631 45.0301 430.409 41.016 433.804 37.7742C437.2 34.5329 441.785 31.907 447.553 29.901ZM354.572 47.4214V78.7588C355.112 78.7588 355.893 78.8103 356.917 78.9132C357.941 79.0159 358.858 79.0945 359.667 79.145C360.475 79.1962 361.203 79.2222 361.85 79.2222C366.917 79.2222 370.854 78.1149 373.657 75.9032C376.46 73.6916 377.863 69.5477 377.863 63.4765C377.863 52.5679 372.579 47.1131 362.012 47.1131C358.562 47.1131 356.082 47.2158 354.572 47.4214ZM325.46 131.861V31.0589C336.997 28.7946 349.182 27.6632 362.012 27.6632C366.864 27.6632 371.259 27.921 375.194 28.4349C379.128 28.949 383.093 29.9796 387.082 31.5223C391.07 33.0651 394.386 35.0992 397.029 37.6203C399.67 40.1421 401.827 43.5378 403.498 47.808C405.169 52.0795 406.005 57.0964 406.005 62.8588C406.005 78.7076 399.374 89.3075 386.111 94.6589L411.989 131.861H380.612L359.101 97.4368C357.268 97.2312 355.758 97.0253 354.572 96.82V131.861H325.46ZM223.501 79.9943C223.825 70.2176 225.524 61.7776 228.597 54.6778C231.669 47.5765 235.848 42.07 241.13 38.1595C246.414 34.2499 252.103 31.3934 258.195 29.5927C264.287 27.7921 270.946 26.8913 278.17 26.8913C287.228 26.8913 297.148 28.4866 307.93 31.6767L303.725 50.8178C293.804 48.2464 285.987 46.9587 280.273 46.9587C262.265 46.9587 253.262 57.8159 253.262 79.5307C253.262 91.7771 255.392 100.371 259.65 105.31C263.909 110.249 270.028 112.72 278.008 112.72C280.165 112.72 282.376 112.565 284.64 112.255V79.3766H311.488V127.847C300.274 131.45 288.197 133.25 275.259 133.25C240.862 133.25 223.61 115.498 223.501 79.9943ZM13.9698 14.9216C13.9698 42.252 13.9698 83.5819 13.9698 110.911C13.9587 112.828 13.8076 113.44 12.4678 114.672C9.36995 117.629 5.18017 121.628 2.08234 124.584C0.625565 125.975 -0.00735548 125.259 6.44481e-05 123.86V1.58842C6.44481e-05 0.710294 0.744531 0 1.66485 0H167.026C167.167 0 167.335 0.0875769 167.432 0.179403C167.583 0.324342 167.626 0.479667 167.626 0.676302C167.642 2.85746 167.609 8.63518 167.626 10.8163C167.633 11.7908 167.275 12.6602 166.511 13.3074C153.078 26.1296 139.096 39.5265 125.661 52.3481C124.827 53.1724 124.127 53.3327 122.927 53.3327L56.6003 53.3336C56.3886 53.3355 56.2033 53.3887 56.0663 53.5194C55.9389 53.6419 55.8756 53.78 55.8756 53.9531V84.6579C55.8756 84.8524 55.8294 85.0068 55.68 85.1489C55.5289 85.2924 55.3673 85.3339 55.1621 85.3339H42.6115C42.4102 85.3339 42.2469 85.2907 42.0995 85.1489C41.9501 85.0068 41.9049 84.8514 41.9049 84.6579V40.6907C41.9049 40.4955 41.9397 40.3378 42.0995 40.1855C42.2571 40.0349 42.4245 39.9995 42.6283 39.9995C64.0645 39.9995 96.0469 39.9995 117.483 39.9995C118.557 39.9995 119.536 39.7833 120.408 38.9375C127.976 31.7144 137.276 22.4055 144.844 15.182C145.979 14.0352 145.918 13.3464 144.048 13.3329H15.6346C14.7155 13.3329 13.9698 14.0442 13.9698 14.9216Z" fill="#25386D"></path>
</svg>