<svg xmlns="http://www.w3.org/2000/svg" viewBox="0 0 425 425" xml:space="preserve"><linearGradient id="a" gradientUnits="userSpaceOnUse" x1="-245.992" y1="485.353" x2="1762.008" y2="-606.645"><stop offset="0" style="stop-color:#00c9ff"/><stop offset="1" style="stop-color:#3b72de"/></linearGradient><path fill="#202020" d="m333.318 327.34-15.07-56.239c9.876-17.77 15.14-37.851 15.14-58.649 0-16.324-3.198-32.163-9.506-47.075-6.091-14.402-14.811-27.335-25.915-38.44-11.105-11.105-24.038-19.824-38.439-25.916-14.913-6.307-30.752-9.506-47.075-9.506-16.324 0-32.163 3.199-47.076 9.506-14.401 6.091-27.334 14.811-38.439 25.916-11.104 11.105-19.824 24.038-25.915 38.44-6.308 14.912-9.506 30.751-9.506 47.075s3.198 32.163 9.506 47.076c6.091 14.401 14.811 27.334 25.915 38.439 11.105 11.104 24.038 19.824 38.439 25.915 14.913 6.308 30.752 9.506 47.076 9.506 20.551 0 40.779-5.23 58.637-15.143l56.251 15.072a4.882 4.882 0 0 0 5.977-5.977zm-61.615-19.036a4.863 4.863 0 0 0-3.721.483c-16.804 9.708-36.005 14.84-55.53 14.84-61.302 0-111.174-49.874-111.174-111.175 0-61.302 49.872-111.174 111.174-111.174 61.302 0 111.173 49.872 111.173 111.174 0 19.683-5.126 38.669-14.729 55.355-.08.126-.154.256-.222.388a111.572 111.572 0 0 1-15.92 21.141 4.881 4.881 0 1 0 7.05 6.752 121.732 121.732 0 0 0 11.352-13.734l10.543 39.347-49.996-13.397z"/><linearGradient id="b" gradientUnits="userSpaceOnUse" x1="-255.891" y1="467.148" x2="1752.103" y2="-624.847"><stop offset="0" style="stop-color:#00c9ff"/><stop offset="1" style="stop-color:#3b72de"/></linearGradient><path fill="#202020" d="M292.116 166.521a4.882 4.882 0 0 0-8.453 4.883c7.176 12.421 10.969 26.615 10.969 41.048 0 45.315-36.866 82.181-82.18 82.181-45.315 0-82.181-36.866-82.181-82.181 0-45.314 36.866-82.18 82.181-82.18 6.573 0 13.113.777 19.438 2.311a4.88 4.88 0 1 0 2.3-9.487 92.35 92.35 0 0 0-21.738-2.586c-24.56 0-47.648 9.564-65.014 26.929-17.365 17.365-26.929 40.454-26.929 65.013s9.564 47.648 26.929 65.014c17.366 17.365 40.454 26.929 65.014 26.929 24.558 0 47.647-9.564 65.013-26.929 17.365-17.366 26.929-40.455 26.929-65.014 0-16.145-4.246-32.028-12.278-45.931z"/><linearGradient id="c" gradientUnits="userSpaceOnUse" x1="-273.074" y1="435.553" x2="1734.927" y2="-656.446"><stop offset="0" style="stop-color:#00c9ff"/><stop offset="1" style="stop-color:#3b72de"/></linearGradient><path fill="202020" d="M253.542 141.265a82.56 82.56 0 0 1 15.742 11.826 4.862 4.862 0 0 0 3.375 1.355 4.87 4.87 0 0 0 3.526-1.504 4.883 4.883 0 0 0-.149-6.902 92.357 92.357 0 0 0-17.607-13.225 4.88 4.88 0 1 0-4.887 8.45z"/><linearGradient id="d" gradientUnits="userSpaceOnUse" x1="-268.207" y1="444.509" x2="1739.802" y2="-647.494"><stop offset="0" style="stop-color:#00c9ff"/><stop offset="1" style="stop-color:#3b72de"/></linearGradient><path fill="#202020" d="M141.013 212.452c0 9.646 7.847 17.493 17.493 17.493 9.645 0 17.492-7.847 17.492-17.493 0-9.646-7.847-17.493-17.492-17.493s-17.493 7.847-17.493 17.493zm25.224 0c0 4.263-3.468 7.73-7.73 7.73-4.263 0-7.731-3.468-7.731-7.73s3.468-7.731 7.731-7.731c4.262 0 7.73 3.468 7.73 7.731z"/><linearGradient id="e" gradientUnits="userSpaceOnUse" x1="-255.882" y1="467.169" x2="1752.126" y2="-624.833"><stop offset="0" style="stop-color:#00c9ff"/><stop offset="1" style="stop-color:#3b72de"/></linearGradient><path fill="#202020" d="M195.008 212.452c0 9.646 7.847 17.493 17.492 17.493 9.646 0 17.493-7.847 17.493-17.493 0-9.646-7.847-17.493-17.493-17.493-9.645 0-17.492 7.847-17.492 17.493zm25.223 0c0 4.263-3.468 7.73-7.731 7.73-4.262 0-7.73-3.468-7.73-7.73s3.468-7.731 7.73-7.731c4.263 0 7.731 3.468 7.731 7.731z"/><linearGradient id="f" gradientUnits="userSpaceOnUse" x1="-243.558" y1="489.83" x2="1764.442" y2="-602.168"><stop offset="0" style="stop-color:#00c9ff"/><stop offset="1" style="stop-color:#3b72de"/></linearGradient><path fill="#202020" d="M266.494 229.945c9.645 0 17.493-7.847 17.493-17.493 0-9.646-7.848-17.493-17.493-17.493-9.646 0-17.493 7.847-17.493 17.493 0 9.646 7.847 17.493 17.493 17.493zm0-25.224c4.262 0 7.731 3.468 7.731 7.731s-3.469 7.73-7.731 7.73c-4.263 0-7.731-3.468-7.731-7.73s3.468-7.731 7.731-7.731z"/></svg>